# xmcd CD database file
#
# Track frame offsets:
#	150
#	34048
#	61011
#	102936
#	131171
#	152442
#	178174
#	198578
#	226140
#	244119
#	270588
#
# Disc length: 3999 seconds
#
# Revision: 0
# Processed by: cddbd v1.5.2PL0 Copyright (c) Steve Scherf et al.
# Submitted via: CDex 1.70beta2
#
DISCID=8d0f9d0b
DTITLE=Super Trombone - 2001-2005 Best Of Best
DYEAR=1900
DGENRE=Jazz
TTITLE0=Captain Caribe
TTITLE1=Be Bop
TTITLE2=Take Five
TTITLE3=Moonlight Serenade
TTITLE4=Jumpin' At The Woodside
TTITLE5=In The Mood
TTITLE6=Little Brown Jug
TTITLE7=Mission Impossible
TTITLE8=Blow Away
TTITLE9=Across 110th Street
TTITLE10=The Godfather
EXTD=
EXTT0=
EXTT1=
EXTT2=
EXTT3=
EXTT4=
EXTT5=
EXTT6=
EXTT7=
EXTT8=
EXTT9=
EXTT10=
PLAYORDER=
